<?xml version="1.0" encoding="UTF-8" standalone="no"?>
<!-- Created with Inkscape (http://www.inkscape.org/) -->

<svg
   xmlns:dc="http://purl.org/dc/elements/1.1/"
   xmlns:cc="http://creativecommons.org/ns#"
   xmlns:rdf="http://www.w3.org/1999/02/22-rdf-syntax-ns#"
   xmlns:svg="http://www.w3.org/2000/svg"
   xmlns="http://www.w3.org/2000/svg"
   xmlns:sodipodi="http://sodipodi.sourceforge.net/DTD/sodipodi-0.dtd"
   xmlns:inkscape="http://www.inkscape.org/namespaces/inkscape"
   width="1052.3622"
   height="744.09448"
   id="svg2"
   version="1.1"
   inkscape:version="0.48.4 r9939"
   sodipodi:docname="logo.svg">
  <defs
     id="defs4" />
  <sodipodi:namedview
     id="base"
     pagecolor="#ffffff"
     bordercolor="#666666"
     borderopacity="1.0"
     inkscape:pageopacity="0.0"
     inkscape:pageshadow="2"
     inkscape:zoom="0.35"
     inkscape:cx="69.175604"
     inkscape:cy="520"
     inkscape:document-units="px"
     inkscape:current-layer="layer1"
     showgrid="false"
     inkscape:window-width="1108"
     inkscape:window-height="667"
     inkscape:window-x="2046"
     inkscape:window-y="243"
     inkscape:window-maximized="0" />
  <metadata
     id="metadata7">
    <rdf:RDF>
      <cc:Work
         rdf:about="">
        <dc:format>image/svg+xml</dc:format>
        <dc:type
           rdf:resource="http://purl.org/dc/dcmitype/StillImage" />
        <dc:title />
      </cc:Work>
    </rdf:RDF>
  </metadata>
  <g
     inkscape:label="Text"
     inkscape:groupmode="layer"
     id="layer1"
     transform="translate(0,-308.2677)">
    <rect
       style="fill:#1a1a1a;fill-opacity:1;stroke:none;display:inline"
       id="rect3002"
       width="1320"
       height="831.42859"
       x="-188.57143"
       y="256.64789" />
    <text
       xml:space="preserve"
       style="font-size:129.44624328999998000px;font-style:normal;font-variant:normal;font-weight:normal;font-stretch:normal;line-height:125%;letter-spacing:0px;word-spacing:0px;fill:#b3b3b3;fill-opacity:1;stroke:none;font-family:Droid Sans;-inkscape-font-specification:Droid Sans"
       x="155.98154"
       y="682.18652"
       id="text2985"
       sodipodi:linespacing="125%"
       transform="matrix(1.184208,-0.14247054,0.10014474,0.83239797,0,0)"><tspan
         sodipodi:role="line"
         id="tspan2987"
         x="155.98154"
         y="682.18652"
         style="font-style:normal;font-variant:normal;font-weight:normal;font-stretch:normal;font-family:Loved by the King;-inkscape-font-specification:Loved by the King;fill:#b3b3b3">be.more</tspan></text>
    <text
       xml:space="preserve"
       style="font-size:270.19525146px;font-style:normal;font-variant:normal;font-weight:normal;font-stretch:normal;line-height:125%;letter-spacing:0px;word-spacing:0px;fill:#e5373b;fill-opacity:1;stroke:none;font-family:Droid Sans;-inkscape-font-specification:Droid Sans"
       x="227.74493"
       y="770.52039"
       id="text2985-1"
       sodipodi:linespacing="125%"><tspan
         sodipodi:role="line"
         id="tspan2987-7"
         x="227.74493"
         y="770.52039"
         style="font-style:normal;font-variant:normal;font-weight:normal;font-stretch:normal;fill:#e5373b;fill-opacity:1;font-family:Fredericka the Great;-inkscape-font-specification:Fredericka the Great">.indv</tspan></text>
    <text
       xml:space="preserve"
       style="font-size:129.44624328999998000px;font-style:normal;font-variant:normal;font-weight:normal;font-stretch:normal;line-height:125%;letter-spacing:0px;word-spacing:0px;fill:#e6e6e6;fill-opacity:1;stroke:none;font-family:Droid Sans;-inkscape-font-specification:Droid Sans"
       x="775.68439"
       y="698.77203"
       id="text2985-8"
       sodipodi:linespacing="125%"
       transform="matrix(1.164782,0.25676706,-0.18048552,0.81874314,0,0)"><tspan
         sodipodi:role="line"
         id="tspan2987-8"
         x="775.68439"
         y="698.77203"
         style="font-style:normal;font-variant:normal;font-weight:normal;font-stretch:normal;font-family:Loved by the King;-inkscape-font-specification:Loved by the King;fill:#e6e6e6">.uk</tspan></text>
  </g>
  <g
     inkscape:groupmode="layer"
     id="layer2"
     inkscape:label="Sparkles"
     style="display:inline"
     transform="translate(0,-308.2677)">
    <g
       id="g3879"
       transform="translate(1074.2857,462.85715)">
      <text
         sodipodi:linespacing="125%"
         id="text2989"
         y="149.50504"
         x="25.714287"
         style="font-size:24px;font-style:normal;font-variant:normal;font-weight:normal;font-stretch:normal;line-height:125%;letter-spacing:0px;word-spacing:0px;fill:#000000;fill-opacity:1;stroke:none;font-family:Droid Sans;-inkscape-font-specification:Droid Sans"
         xml:space="preserve"><tspan
           y="149.50504"
           x="25.714287"
           id="tspan2991"
           sodipodi:role="line" /></text>
      <path
         inkscape:connector-curvature="0"
         d="m -294.7081,105.57216 c 10.57308,-8.67931 21.83107,-16.390644 32.30107,-25.20759 5.07817,-3.839509 9.99923,-7.845388 14.74053,-12.089215 0,0 15.33132,-6.260599 15.33132,-6.260599 l 0,0 c -4.76777,4.356347 -9.73209,8.450189 -14.96974,12.240719 -10.28632,8.749274 -21.36122,16.37229 -31.7122,25.019767 0,0 -15.69098,6.296918 -15.69098,6.296918 z"
         id="path3091"
         style="fill:#e5373b;fill-opacity:1;stroke:none" />
      <path
         inkscape:connector-curvature="0"
         d="m -390.41241,51.645823 c 0.83935,-13.531582 1.64901,-27.086093 2.7346,-40.605149 1.46984,-12.9587309 0.72058,-6.5062665 2.247,-19.357485 0,0 14.43351,-7.13902 14.43351,-7.13902 l 0,0 c -1.54461,12.8139532 -0.80617,6.3922837 -2.21464,19.2650889 -0.98114,13.3522841 -1.82863,26.7597901 -2.08994,40.1373641 0,0 -15.11053,7.699201 -15.11053,7.699201 z"
         id="path3093"
         style="fill:#e5373b;fill-opacity:1;stroke:none" />
      <path
         inkscape:connector-curvature="0"
         d="m -211.10426,178.81745 c 23.35749,0.38614 46.71979,0.44247 70.08012,0.46698 5.82072,0.24299 11.64144,0.48599 17.46216,0.72898 0,0 -12.38123,8.92174 -12.38123,8.92174 l 0,0 c -5.82859,-0.21269 -11.65719,-0.42538 -17.48578,-0.63807 -23.78885,0.0249 -47.57943,0.0874 -71.36559,0.46697 0,0 13.69032,-9.9466 13.69032,-9.9466 z"
         id="path3095"
         style="fill:#e5373b;fill-opacity:1;stroke:none" />
      <path
         inkscape:connector-curvature="0"
         d="m -319.61754,353.33483 c 8.52056,13.74275 14.58292,28.74257 19.49329,44.09087 0.80217,2.91567 1.60433,5.83134 2.4065,8.747 0,0 -14.20893,7.71714 -14.20893,7.71714 l 0,0 c -0.76593,-2.90719 -1.53185,-5.81438 -2.29778,-8.72157 -4.83776,-15.16646 -10.88968,-30.0468 -19.88322,-43.27977 0,0 14.49014,-8.55367 14.49014,-8.55367 z"
         id="path3097"
         style="fill:#e5373b;fill-opacity:1;stroke:none" />
      <path
         inkscape:connector-curvature="0"
         d="m -423.90608,368.06448 c -0.3862,15.69495 -0.1332,31.39302 -0.69013,47.08282 -0.13745,9.92045 -1.25727,19.76039 -2.492,29.58823 0,0 -14.43336,7.12326 -14.43336,7.12326 l 0,0 c 1.28577,-9.7823 2.46508,-19.57806 2.57711,-29.46286 0.52008,-15.55058 0.30685,-31.11075 -0.007,-46.66564 0,0 15.04499,-7.66581 15.04499,-7.66581 z"
         id="path3099"
         style="fill:#e5373b;fill-opacity:1;stroke:none" />
      <path
         inkscape:connector-curvature="0"
         d="m -578.19179,390.92162 c -0.57571,10.8633 -4.31319,21.16394 -7.73429,31.37537 0,0 -14.44213,6.78285 -14.44213,6.78285 l 0,0 c 3.2832,-9.91175 6.87131,-19.92888 7.13143,-30.49241 0,0 15.04499,-7.66581 15.04499,-7.66581 z"
         id="path3101"
         style="fill:#e5373b;fill-opacity:1;stroke:none" />
      <path
         inkscape:connector-curvature="0"
         d="m -723.62985,376.89351 c 2.39291,22.70731 -1.4636,45.16781 -6.92846,67.1314 0,0 -14.03337,6.72025 -14.03337,6.72025 l 0,0 c 1.20293,-4.73463 2.62047,-9.41986 3.6088,-14.2039 3.51163,-16.9981 4.73722,-34.58218 2.43912,-51.81362 0,0 14.91391,-7.83413 14.91391,-7.83413 z"
         id="path3103"
         style="fill:#e5373b;fill-opacity:1;stroke:none" />
      <path
         inkscape:connector-curvature="0"
         d="m -860.91506,386.31074 c -20.15909,3.02904 -40.52007,4.56088 -60.85506,5.87044 -4.70592,0.2173 -9.41184,0.43461 -14.11776,0.65191 0,0 12.59219,-9.2419 12.59219,-9.2419 l 0,0 c 4.71804,-0.23768 9.43609,-0.47535 14.15413,-0.71303 20.6507,-1.39722 41.31924,-3.09914 61.73126,-6.63815 0,0 -13.50476,10.07073 -13.50476,10.07073 z"
         id="path3105"
         style="fill:#e5373b;fill-opacity:1;stroke:none" />
      <path
         inkscape:connector-curvature="0"
         d="m -906.30027,252.68842 c -10.43676,-7.07651 -20.40144,-14.83215 -30.46079,-22.4243 0,0 12.72593,-8.07668 12.72593,-8.07668 l 0,0 c 10.4994,7.33389 20.87926,14.92477 31.94853,21.40012 0,0 -14.21367,9.10086 -14.21367,9.10086 z"
         id="path3107"
         style="fill:#e5373b;fill-opacity:1;stroke:none" />
      <path
         inkscape:connector-curvature="0"
         d="m -892.43282,133.56631 c -17.32463,-24.22608 -37.30497,-46.469976 -56.74189,-68.998834 0,0 12.21193,-7.371481 12.21193,-7.371481 l 0,0 c 19.84809,22.40186 40.13816,44.480475 58.89663,67.810315 0,0 -14.36667,8.56 -14.36667,8.56 z"
         id="path3109"
         style="fill:#e5373b;fill-opacity:1;stroke:none" />
    </g>
  </g>
</svg>
